<svg xmlns="http://www.w3.org/2000/svg" viewBox="0 0 64 64" fill="none">
  <defs>
    <linearGradient id="g" x1="0" y1="0" x2="64" y2="64" gradientUnits="userSpaceOnUse">
      <stop stop-color="#6366f1"/>
      <stop offset="1" stop-color="#a855f7"/>
    </linearGradient>
  </defs>
  <rect width="64" height="64" rx="14" fill="url(#g)"/>
  <path d="M18 14h18l10 10v26a4 4 0 0 1-4 4H18a4 4 0 0 1-4-4V18a4 4 0 0 1 4-4z" fill="#fff" fill-opacity=".9"/>
  <path d="M36 14v10h10" fill="#e0e7ff"/>
  <path d="M36 14l10 10h-6a4 4 0 0 1-4-4v-6z" fill="#c7d2fe"/>
  <rect x="20" y="30" width="18" height="2.5" rx="1.25" fill="#6366f1" fill-opacity=".6"/>
  <rect x="20" y="35" width="14" height="2.5" rx="1.25" fill="#6366f1" fill-opacity=".4"/>
  <rect x="20" y="40" width="16" height="2.5" rx="1.25" fill="#6366f1" fill-opacity=".3"/>
</svg>